<svg xmlns="http://www.w3.org/2000/svg" viewBox="0 0 345 345" width="345" height="345">
	<style>
		tspan { white-space:pre }
		.shp0 { fill: #000000 } 
	</style>
	<path id="Layer 1 copy" class="shp0" d="M93.31 232.01L66.28 204.98L158.5 112.76L185.53 139.79L93.31 232.01ZM250.51 232.01L156.63 138.12L183.65 111.1L277.53 204.99L250.51 232.01ZM277.86 231.94C270.43 239.37 258.42 239.37 250.99 231.94C243.56 224.51 243.56 212.5 250.99 205.07C258.42 197.64 270.43 197.64 277.86 205.07C285.29 212.5 285.29 224.51 277.86 231.94ZM93.31 231.23C85.88 238.66 73.86 238.66 66.44 231.23C59.01 223.8 59.01 211.79 66.44 204.36C73.86 196.93 85.88 196.93 93.31 204.36C100.73 211.79 100.73 223.8 93.31 231.23ZM185.23 139.31C177.8 146.73 165.79 146.73 158.36 139.31C150.93 131.88 150.93 119.86 158.36 112.44C165.79 105.01 177.8 105.01 185.23 112.44C192.66 119.86 192.66 131.88 185.23 139.31Z" />
</svg>