<svg xmlns="http://www.w3.org/2000/svg" viewBox="0 0 256 256" width="256" height="256">
	<style>
		tspan { white-space:pre }
		.shp0 { fill: #000000 } 
	</style>
	<path id="Layer 4 copy 5" class="shp0" d="M91.86 117.19C107.45 132.78 108.54 139.06 118.47 149.46C129.3 160.81 132.73 161.93 136.86 169.27C139.89 174.64 135.89 191.38 129.83 195.87C123.71 200.4 113.4 190.13 104.8 181.82C99.19 176.4 100.63 176.31 92.78 168.86C76.78 153.68 80.32 161.02 64.73 145.43C57.52 138.22 58.07 133.27 45.17 119.46C37.75 111.52 27.5 105.09 20.08 97.1C15.55 92.22 3.35 75.28 6.74 65.09C10.18 54.76 30.17 67.38 38.37 71.06C52.52 78.14 49.07 82.39 61.58 93.7" />
	<path id="Layer 4 copy 4" class="shp0" d="M164.88 122.85C164.88 122.85 153.56 132.7 141.39 151.44C132.74 164.76 128.62 162.11 119.6 171.82C114.3 177.52 118.42 192.03 121.96 195.88C125.33 199.53 141.64 192.51 150.33 184.11C156.01 178.63 161.48 171.76 169.41 164.23C185.58 148.88 175.22 161.41 190.98 145.65C198.26 138.37 200.77 133.38 213.82 119.42C221.31 111.4 221.62 111.75 236.71 95.33C241.27 90.37 255.03 66.08 248.94 65.68C240.17 65.12 221.1 72.29 214.41 78.99C197.69 92.9 206.96 88.49 194.32 99.93" />
</svg>