<svg xmlns="http://www.w3.org/2000/svg" viewBox="0 0 256 256" width="256" height="256">
	<style>
		tspan { white-space:pre }
		.shp0 { fill: #000000 } 
	</style>
	<path id="Layer 4 copy 6" class="shp0" d="M164.76 140.89C149.17 125.3 148.08 119.03 138.16 108.63C127.32 97.28 123.89 96.16 119.76 88.82C116.73 83.45 120.73 66.71 126.8 62.22C132.91 57.69 143.22 67.96 151.82 76.27C157.44 81.69 155.99 81.78 163.84 89.23C179.84 104.41 176.3 97.07 191.89 112.66C199.1 119.87 198.55 124.82 211.46 138.63C218.87 146.57 229.13 153 236.54 160.99C241.08 165.87 253.28 182.81 249.88 193C246.44 203.33 226.46 190.71 218.25 187.03C204.1 179.95 207.56 175.7 195.04 164.39" />
	<path id="Layer 4 copy 7" class="shp0" d="M91.74 135.23C91.74 135.23 103.06 125.39 115.23 106.65C123.88 93.33 128 95.98 137.02 86.27C142.32 80.57 138.2 66.05 134.66 62.21C131.29 58.56 114.98 65.58 106.29 73.98C100.62 79.46 95.14 86.33 87.21 93.86C71.05 109.21 81.41 96.68 65.64 112.44C58.36 119.72 55.86 124.71 42.81 138.66C35.31 146.68 35 146.34 19.91 162.76C15.36 167.72 1.6 192.01 7.68 192.4C16.46 192.97 35.52 185.79 42.21 179.1C58.93 165.19 49.66 169.6 62.31 158.16" />
</svg>