<svg xmlns="http://www.w3.org/2000/svg" viewBox="0 0 256 256" width="256" height="256">
	<style>
		tspan { white-space:pre }
		.shp0 { fill: #ffffff } 
	</style>
	<path id="Layer 4 copy 2" class="shp0" d="M71.43 172.82C84.97 186.36 89.92 188.03 98.5 197.09C107.88 206.98 107.75 206.74 111.13 213.32C113.61 218.14 117.34 230.87 112 236.21C109.4 238.81 98.21 229.7 90.72 222.5C85.83 217.81 83.54 217.18 76.7 210.74C62.76 197.62 69.22 204.68 55.68 191.14C49.43 184.88 48.43 182 37.29 169.95C30.89 163.02 30.02 163.13 17.16 148.94C13.27 144.65 5.76 129.27 14.01 121.45C18.94 116.77 27.32 126.91 30.97 130.03C44.74 141.8 39.76 138.61 50.7 148.35" />
	<path id="Layer 4 copy" class="shp0" d="M131.4 139.42C131.4 139.42 157.85 141.19 182.63 139.98C203.95 138.94 203.86 138.48 221.68 138C232.16 137.72 245.17 133.6 245.46 128.38C245.73 123.41 223.52 116.85 207.25 116.64C196.64 116.51 184.9 117.49 170.18 117.21C140.18 116.63 161.97 115.09 131.97 115.09C118.1 115.09 110.98 116.85 85.27 117.49C70.5 117.86 70.54 117.4 40.56 118.34C31.5 118.62 9.14 121.99 9.14 128.09C9.14 134.74 33.48 141.96 46.21 141.96C75.36 143.94 64.89 138.85 87.82 139.7" />
	<path id="Layer 4" class="shp0" d="M56.9 75.64C56.9 75.64 73.03 63.28 86.5 51.52C98.08 41.4 96.88 39.68 106.29 30.95C111.82 25.82 124.08 19.45 131.78 18.31C137.93 17.41 127.63 35.82 118.57 45.11C113.23 50.58 110.65 55.3 102.72 64.73C88.83 81.27 94.7 74.93 79.43 90.2C72.37 97.26 74.05 101.29 60.51 113.92C52.73 121.18 50.9 120.46 34.98 135.06C30.17 139.46 24.08 139.14 14.57 136.25C1.55 132.3 15.54 119.79 19.09 115.72C32.5 100.31 26.83 110.78 37.9 98.51" />
</svg>