<svg xmlns="http://www.w3.org/2000/svg" viewBox="0 0 256 256" width="256" height="256">
	<style>
		tspan { white-space:pre }
		.shp0 { fill: #ffffff } 
	</style>
	<path id="Layer 3 copy 2" class="shp0" d="M38.5 142C31.03 142 25 135.97 25 128.5C25 121.03 31.03 115 38.5 115C45.97 115 52 121.03 52 128.5C52 135.97 45.97 142 38.5 142ZM217.5 142C210.03 142 204 135.97 204 128.5C204 121.03 210.03 115 217.5 115C224.97 115 231 121.03 231 128.5C231 135.97 224.97 142 217.5 142ZM39 115L216 115L216 142L39 142L39 115ZM102.01 210.1C96.73 204.82 96.73 196.29 102.01 191.01C107.29 185.73 115.82 185.73 121.1 191.01C126.38 196.29 126.38 204.82 121.1 210.1C115.82 215.38 107.29 215.38 102.01 210.1ZM50.03 119.94L120.74 190.65L101.65 209.74L30.94 139.03L50.03 119.94ZM123.1 63.99C117.82 69.27 109.29 69.27 104.01 63.99C98.73 58.71 98.73 50.18 104.01 44.9C109.29 39.62 117.82 39.62 123.1 44.9C128.38 50.18 128.38 58.71 123.1 63.99ZM32.94 115.97L103.65 45.26L122.74 64.35L52.03 135.06L32.94 115.97Z" />
</svg>