<svg xmlns="http://www.w3.org/2000/svg" viewBox="0 0 256 256" width="256" height="256">
	<style>
		tspan { white-space:pre }
		.shp0 { fill: #ce2026;stroke: #000000;stroke-width: 12 } 
		.shp1 { fill: #000000 } 
	</style>
	<g id="Folder 1">
		<path id="Layer 3 copy" class="shp0" d="M118.6 189.36C57.11 179.55 11.01 149.1 15.45 121.24C19.9 93.38 73.19 78.79 134.68 88.6C196.16 98.42 242.27 128.87 237.82 156.73C233.38 184.59 180.08 199.18 118.6 189.36Z" />
		<path id="Layer 3" class="shp0" d="M121.6 165.36C60.11 155.55 14.01 125.1 18.45 97.24C22.9 69.38 76.19 54.79 137.68 64.6C199.16 74.42 245.27 104.87 240.82 132.73C236.38 160.59 183.08 175.18 121.6 165.36Z" />
		<path id="Layer 2 copy" class="shp1" d="M238 155.9L240.55 132L246.52 132.64L243.97 156.54L238 155.9Z" />
		<path id="Layer 2 copy 2" class="shp1" d="M9 121.9L11.55 98L17.52 98.64L14.97 122.54L9 121.9Z" />
	</g>
</svg>