<svg xmlns="http://www.w3.org/2000/svg" viewBox="0 0 256 256" width="256" height="256">
	<style>
		tspan { white-space:pre }
		.shp0 { fill: #ffffff;stroke: #000000;stroke-width: 6 } 
		.shp1 { fill: #000000 } 
	</style>
	<g id="Folder 1">
		<path id="Layer 3 copy" class="shp0" d="M118.6 189.36C57.11 179.55 11.01 149.1 15.45 121.24C19.9 93.38 73.19 78.79 134.68 88.6C196.16 98.42 242.27 128.87 237.82 156.73C233.38 184.59 180.08 199.18 118.6 189.36Z" />
		<path id="Layer 3" class="shp0" d="M121.6 165.36C60.11 155.55 14.01 125.1 18.45 97.24C22.9 69.38 76.19 54.79 137.68 64.6C199.16 74.42 245.27 104.87 240.82 132.73C236.38 160.59 183.08 175.18 121.6 165.36Z" />
		<path id="Layer 2 copy" class="shp1" d="M234.91 157.21L237.46 133.31L243.43 133.95L240.88 157.85L234.91 157.21Z" />
		<path id="Layer 2 copy 2" class="shp1" d="M11.91 123.21L14.46 99.31L20.43 99.95L17.88 123.85L11.91 123.21Z" />
	</g>
</svg>