<svg xmlns="http://www.w3.org/2000/svg" viewBox="0 0 256 256" width="256" height="256">
	<style>
		tspan { white-space:pre }
		.shp0 { fill: #000000 } 
		.shp1 { fill: #ce2026 } 
	</style>
	<g id="D10 copy">
		<path id="Layer 6" class="shp0" d="M105.44 31.98L65.09 13.03C65.09 13.03 58.9 12.35 56.53 17.92C54.16 23.48 18.01 79.67 18.01 79.67C18.01 79.67 13.43 83.27 15.57 90.06C17.71 96.85 22.29 104.73 22.29 104.73C22.29 104.73 22.15 107.91 31.46 112.07C40.78 116.23 88.93 133.47 88.93 133.47C88.93 133.47 96.62 137.05 102.38 131.02C108.15 125 142.12 68.66 142.12 68.66C142.12 68.66 146.73 62.09 141.51 55.82C136.29 49.55 134.17 47.26 134.17 47.26C134.17 47.26 131.09 44.05 125.62 41.15" />
		<path id="Layer 7" class="shp1" d="M99.33 125L99.94 102.9C99.94 102.9 99.39 96.6 108.5 87.61C117.61 78.62 123.27 71.62 128.06 67.44C129.86 65.87 130.14 65.81 134.31 66.36C138.3 66.88 136.59 68.73 135.6 70.22" />
		<path id="Layer 8" class="shp1" d="M77.93 23.02L125 44.82L136.62 58.88C136.62 58.88 139.32 63.15 133.86 62.55C128.42 61.96 128.45 62.43 123.97 58.8" />
		<path id="Layer 9" class="shp1" d="M30.53 107.11L43.69 99.23C43.69 99.23 45.52 96.85 57.14 97.4C68.77 97.94 88.93 98.62 88.93 98.62C88.93 98.62 94.87 97.9 95.41 105.38C95.95 112.85 95.66 125.52 95.66 125.52C95.66 125.52 96.12 131.16 88.84 128.22" />
		<path id="Layer 10" class="shp1" d="M94.72 40.15L66.92 19.14C66.92 19.14 62.22 15.72 61.42 22.2C60.63 28.55 54.08 83.33 54.08 83.33C54.08 83.33 51.57 92.15 62.19 92.4C72.81 92.65 89.18 93.61 89.18 93.61C89.18 93.61 94.99 93.96 99.05 90.5C103.1 87.04 122.52 66.69 122.52 66.69C122.52 66.69 124.64 64.18 121.29 61.19" />
		<path id="Layer 11" class="shp1" d="M57.69 21.28L22.29 79.67C22.29 79.67 18.21 84.67 19.8 88.94C21.39 93.21 24.64 100.36 24.64 100.36C24.64 100.36 26.37 104.89 32.69 101.67C39.01 98.46 44.3 93.73 44.3 93.73C44.3 93.73 48.24 91.76 49.73 81.67" />
	</g>
	<g id="D10 copy 2">
		<path id="Layer 6" class="shp0" d="M120.69 106.26L174.78 80.86C174.78 80.86 183.08 79.95 186.26 87.41C189.43 94.88 237.89 170.19 237.89 170.19C237.89 170.19 244.04 175.02 241.17 184.12C238.3 193.22 232.15 203.79 232.15 203.79C232.15 203.79 232.35 208.05 219.86 213.63C207.37 219.2 142.82 242.31 142.82 242.31C142.82 242.31 132.52 247.11 124.79 239.03C117.06 230.96 71.52 155.44 71.52 155.44C71.52 155.44 65.34 146.63 72.34 138.23C79.33 129.82 82.17 126.75 82.17 126.75C82.17 126.75 86.31 122.44 93.65 118.56" />
		<path id="Layer 7" class="shp1" d="M128.88 230.96L128.07 201.33C128.07 201.33 128.8 192.89 116.59 180.84C104.38 168.79 96.79 159.4 90.37 153.8C87.95 151.69 87.58 151.62 81.99 152.35C76.64 153.05 78.94 155.53 80.26 157.52" />
		<path id="Layer 8" class="shp1" d="M157.57 94.25L94.46 123.47L78.89 142.32C78.89 142.32 75.27 148.05 82.6 147.25C89.89 146.45 89.85 147.09 95.85 142.21" />
		<path id="Layer 9" class="shp1" d="M221.12 206.98L203.47 196.42C203.47 196.42 201.02 193.23 185.44 193.96C169.85 194.68 142.82 195.6 142.82 195.6C142.82 195.6 134.86 194.64 134.13 204.66C133.41 214.68 133.8 231.66 133.8 231.66C133.8 231.66 133.19 239.22 142.95 235.28" />
		<path id="Layer 10" class="shp1" d="M135.06 117.21L172.32 89.05C172.32 89.05 178.62 84.46 179.7 93.15C180.76 101.67 189.53 175.11 189.53 175.11C189.53 175.11 192.91 186.92 178.67 187.26C164.43 187.6 142.48 188.88 142.48 188.88C142.48 188.88 134.7 189.35 129.26 184.71C123.82 180.07 97.8 152.79 97.8 152.79C97.8 152.79 94.95 149.44 99.44 145.42" />
		<path id="Layer 11" class="shp1" d="M184.7 91.93L232.15 170.19C232.15 170.19 237.63 176.9 235.5 182.62C233.37 188.34 229 197.93 229 197.93C229 197.93 226.69 204.01 218.22 199.69C209.75 195.38 202.65 189.04 202.65 189.04C202.65 189.04 197.37 186.41 195.37 172.88" />
	</g>
</svg>