<svg xmlns="http://www.w3.org/2000/svg" viewBox="0 0 256 256" width="256" height="256">
	<style>
		tspan { white-space:pre }
		.shp0 { fill: #000000 } 
		.shp1 { fill: #ce2026 } 
	</style>
	<g id="D10">
		<path id="Layer 6" class="shp0" d="M83 59L149 28C149 28 159.13 26.89 163 36C166.87 45.11 226 137 226 137C226 137 233.5 142.89 230 154C226.5 165.11 219 178 219 178C219 178 219.24 183.19 204 190C188.76 196.81 110 225 110 225C110 225 97.43 230.86 88 221C78.57 211.14 23 119 23 119C23 119 15.47 108.25 24 98C32.53 87.75 36 84 36 84C36 84 41.05 78.74 50 74" />
		<path id="Layer 7" class="shp1" d="M93 211.15L92 175C92 175 92.9 164.7 78 150C63.1 135.3 53.83 123.84 46 117C43.05 114.43 42.6 114.34 35.78 115.24C29.25 116.09 32.06 119.12 33.67 121.54" />
		<path id="Layer 8" class="shp1" d="M128 44.34L51 80L32 103C32 103 27.58 109.99 36.52 109.01C45.42 108.04 45.37 108.81 52.7 102.87" />
		<path id="Layer 9" class="shp1" d="M205.53 181.89L184 169C184 169 181.01 165.11 162 166C142.99 166.89 110 168 110 168C110 168 100.28 166.83 99.4 179.06C98.52 191.28 99 212 99 212C99 212 98.25 221.23 110.16 216.42" />
		<path id="Layer 10" class="shp1" d="M100.53 72.36L146 38C146 38 153.69 32.4 155 43C156.29 53.4 167 143 167 143C167 143 171.11 157.42 153.74 157.83C136.37 158.25 109.59 159.81 109.59 159.81C109.59 159.81 100.09 160.38 93.46 154.72C86.82 149.06 55.07 115.77 55.07 115.77C55.07 115.77 51.59 111.68 57.07 106.77" />
		<path id="Layer 11" class="shp1" d="M161.1 41.51L219 137C219 137 225.68 145.19 223.08 152.17C220.48 159.15 215.16 170.85 215.16 170.85C215.16 170.85 212.33 178.26 202 173C191.67 167.74 183 160 183 160C183 160 176.56 156.79 174.12 140.28" />
	</g>
</svg>