<svg xmlns="http://www.w3.org/2000/svg" viewBox="0 0 256 256" width="256" height="256">
	<style>
		tspan { white-space:pre }
		.shp0 { fill: #000000 } 
		.shp1 { fill: #ce2026 } 
	</style>
	<g id="D12">
		<path id="Layer 6" class="shp0" d="M53 177L76 212C76 212 85.16 225.87 103 227C120.84 228.13 146 226 146 226C146 226 158.29 225.7 169.88 220.49C181.47 215.27 196.48 207.28 196.48 207.28C196.48 207.28 202.78 205.57 208 194C213.68 181.42 227.55 142.99 229 135C231.22 122.74 230.14 125.38 227 116C223.86 106.62 171 32 171 32C171 32 168.79 24.14 155 25C141.21 25.86 93 32 93 32C93 32 86.6 31.87 79 40C71.4 48.13 60 57 60 57C60 57 56.48 60.06 53 69C49.52 77.94 29 119 29 119C29 119 23.58 131.61 29 141" />
		<path id="Layer 7" class="shp1" d="M82 47L61 66C61 66 42.75 104.54 35.18 120.2C31.4 128 32.16 140.2 40.46 130.01C48.5 120.15 67 93 67 93C67 93 73.81 85.16 76 74" />
		<path id="Layer 8" class="shp1" d="M113.93 95.75L88.08 87.45C88.08 87.45 81.06 84.96 83.55 71.41C86.05 57.86 89 49 89 49C89 49 90.07 39.34 103.55 37.64C116.95 35.94 133.74 34.43 149 33C156.4 32.31 160.48 31.47 169 42C177.7 52.75 179.47 55.84 185.88 64.14C190.39 69.97 192.99 72.39 186.45 77.35C179.91 82.31 158 99 158 99C158 99 151.16 107.19 136 102" />
		<path id="Layer 9" class="shp1" d="M60 171L43.33 147.02C43.33 147.02 38.61 141.92 47.12 130.49C56.17 118.32 51.49 123.58 69.71 99.75C73.39 94.94 78.94 91.75 92.07 95.5C105.2 99.25 133 109 133 109C133 109 144.72 112 145 120C145.28 128 146.13 172.49 146.13 172.49C146.13 172.49 146.13 183.81 137.92 187.2C131.68 189.79 93.77 204.18 93.77 204.18C93.77 204.18 87.23 208.31 83 202" />
		<path id="Layer 10" class="shp1" d="M195.37 198.52L161.41 193.15C161.41 193.15 151.21 192.04 144 195C136.79 197.96 98.58 209.28 98.58 209.28C98.58 209.28 87 217.42 102.26 217.77C117.52 218.12 151 218 151 218C151 218 157.27 217.02 165 214" />
		<path id="Layer 11" class="shp1" d="M154 139L153 122C153 122 152.68 113.1 162 106C171.32 98.9 188.68 83.39 188.68 83.39C188.68 83.39 195.47 75.94 201.73 86.03C207.99 96.12 220.97 117.54 220.97 117.54C220.97 117.54 226.6 124.83 221.92 138.67C217.23 152.51 206.41 181.13 206.41 181.13C206.41 181.13 202.83 192.64 194.34 190.37C185.66 189.05 176.98 188.11 162.07 186.03C157.76 185.43 153.95 187.44 154 176" />
	</g>
</svg>