<svg xmlns="http://www.w3.org/2000/svg" viewBox="0 0 256 256" width="256" height="256">
	<style>
		tspan { white-space:pre }
		.shp0 { fill: #ffffff } 
		.shp1 { fill: #000000 } 
		.shp2 { fill: #ce2026 } 
	</style>
	<path id="Shape 1" class="shp0" d="" />
	<path id="Shape 2" class="shp1" d="M117 26.2L228 117C228 117 236.5 125.16 226 135C215.5 144.84 77 231 77 231C77 231 60.65 236.67 56 220C51.35 203.33 37 66 37 66C37 66 35.22 55.53 48 50C60.78 44.47 95.85 29.87 110.37 26.85" />
	<path id="Layer 6" class="shp2" d="M64 204L47 68C47 68 44.1 58.75 51 57C57.9 55.25 97 40 97 40C97 40 107.42 38.23 107 49M72 218L113 54C113 54 117.91 40.51 126.11 47.89C134.31 55.26 213.28 113.26 213.28 113.26C213.28 113.26 222.62 125.15 214 130C207.27 133.78 78.57 217.74 78 218" />
</svg>