<svg xmlns="http://www.w3.org/2000/svg" viewBox="0 0 256 256" width="256" height="256">
	<style>
		tspan { white-space:pre }
		.shp0 { fill: #000000 } 
		.shp1 { fill: #ce2026 } 
	</style>
	<g id="D6">
		<path id="Layer 6" class="shp0" d="M210 137L182 219C182 219 178 234.86 153 233C128 231.14 57 203 57 203C57 203 47.28 204.06 45 191C42.72 177.94 31 119 31 119C31 119 29.39 106.03 37 95C44.61 83.97 83 29 83 29C83 29 91.84 19.12 102 24C112.16 28.88 202 44 202 44C202 44 218.48 50.97 214 62" />
		<path id="Layer 7" class="shp1" d="M177 206L178 152C178 152 176.48 134.82 183 126C189.52 117.18 207 70 207 70L202 132C202 132 202.82 143.12 199 146" />
		<path id="Layer 8" class="shp1" d="M169 181L169 213C169 213 170.18 223.31 154 221C137.82 218.69 59 193 59 193C59 193 52.48 191.72 51 182C49.52 172.28 41 122 41 122C41 122 41.65 108.82 52 113C62.35 117.18 153 134 153 134C153 134 170.48 137.76 170 152" />
		<path id="Layer 9" class="shp1" d="M146 39L194 49C194 49 205.92 52.64 201 64C194.8 78.31 175 117 175 117C175 117 173.75 129.98 155.18 126.24C136.99 122.57 54.04 105.48 54.04 105.48C54.04 105.48 44.07 102.67 50 92C55.93 81.33 87 37 87 37C87 37 91.96 28.86 103 30" />
	</g>
</svg>