<svg xmlns="http://www.w3.org/2000/svg" viewBox="0 0 256 256" width="256" height="256">
	<style>
		tspan { white-space:pre }
		.shp0 { fill: #000000 } 
		.shp1 { fill: #ce2026 } 
	</style>
	<g id="D8">
		<path id="Layer 6" class="shp0" d="M101 205L165 233C165 233 180.33 238.78 187 221C193.67 203.22 222 99 222 99C222 99 228.79 87.08 215 81C201.21 74.92 102 21 102 21C102 21 85.2 13.53 80 28C74.8 42.47 39 155 39 155C39 155 30.45 171.16 43 177" />
		<path id="Layer 7" class="shp1" d="M182 202L191 119C191 119 191.88 107.69 199 103C206.12 98.31 210 95 210 95C210 95 214.86 91.19 212 104" />
		<path id="Layer 8" class="shp1" d="M113 33C113 33 148.74 66.23 171.64 85.6C182.67 94.94 186.15 98.47 198.79 95.24C211.44 92.01 205.21 93.03 210.68 90.62C213.63 89.32 214.82 87.19 205 82" />
		<path id="Layer 9" class="shp1" d="M180.08 164.73C180.08 164.73 182.05 140.58 183.1 125.11C184.23 108.5 181.97 111.14 165.74 117.94C154.45 123.03 52.91 171.52 52.91 171.52L156.69 219.45C156.69 219.45 171.31 227.35 174 210" />
		<path id="Layer 10" class="shp1" d="M140 66L171 94C171 94 186.45 102.21 171 108C155.55 113.79 55 158 55 158C55 158 41.84 163.84 47 149C52.16 134.16 83 35 83 35C83 35 87.99 21.19 98 29" />
	</g>
</svg>