<svg xmlns="http://www.w3.org/2000/svg" viewBox="0 0 256 256" width="256" height="256">
	<style>
		tspan { white-space:pre }
		.shp0 { fill: #ffffff } 
	</style>
	<path id="Layer 4 copy 2" class="shp0" d="M131.95 179.38C161.95 179.38 169.29 177.07 188.83 177.4C210.18 177.77 209.78 177.68 220.82 179.95C228.89 181.6 247.14 187.96 247.14 195.51C247.14 199.19 224.64 200.67 208.37 200.87C197.75 201.01 194.52 202.19 179.8 202.47C149.81 203.05 164.8 203.47 134.8 203.47C120.93 203.47 116.64 202.13 90.93 201.49C76.17 201.12 75.33 201.81 45.35 200.87C36.29 200.59 10.93 195.03 11.41 183.66C11.69 176.87 32.21 178.11 39.7 177.74C68 176.32 58.95 177.58 81.87 176.74" />
	<path id="Layer 4 copy" class="shp0" d="M131.4 118.58C131.4 118.58 157.85 116.81 182.63 118.02C203.95 119.06 203.86 119.52 221.68 120C232.16 120.28 245.17 124.4 245.46 129.62C245.73 134.59 223.52 141.15 207.25 141.36C196.64 141.49 184.9 140.51 170.18 140.79C140.18 141.37 161.97 142.91 131.97 142.91C118.1 142.91 110.98 141.15 85.27 140.51C70.5 140.14 70.54 140.6 40.56 139.66C31.5 139.38 9.14 136.01 9.14 129.91C9.14 123.26 33.48 116.04 46.21 116.04C75.36 114.06 64.89 119.15 87.82 118.3" />
	<path id="Layer 4" class="shp0" d="M123 55C123 55 152.75 55.96 177.53 57.17C198.86 58.21 203.01 56.41 220.83 56.89C231.31 57.17 233.85 60.57 236.12 69.91C237.6 76.03 231.44 81.58 215.17 81.79C204.56 81.93 193.95 81.23 179.23 81.51C149.24 82.09 160.83 81.23 130.83 81.23C116.97 81.23 114.65 85.26 88.95 84.62C74.18 84.25 73.08 82.45 43.1 81.51C34.04 81.23 28.38 76.7 21.87 67.92C12.97 55.92 39 56.98 46.5 56.6C74.8 55.19 58.95 58.58 81.87 57.74" />
</svg>