<svg xmlns="http://www.w3.org/2000/svg" viewBox="0 0 64 64" width="64" height="64">
	<style>
		tspan { white-space:pre }
		.shp0 { fill: #ffffff } 
		.shp1 { fill: #000000 } 
	</style>
	<path id="Layer 3" class="shp0" d="M32 64C14.3 64 0 49.7 0 32C0 14.3 14.3 0 32 0C49.7 0 64 14.3 64 32C64 49.7 49.7 64 32 64Z" />
	<path id="Layer 1" fill-rule="evenodd" class="shp1" d="M32 64C14.3 64 0 49.7 0 32C0 14.3 14.3 0 32 0C49.7 0 64 14.3 64 32C64 49.7 49.7 64 32 64ZM61.87 32C61.87 15.48 48.52 2.13 32 2.13C15.48 2.13 2.13 15.48 2.13 32C2.13 48.52 15.48 61.87 32 61.87C48.52 61.87 61.87 48.52 61.87 32Z" />
	<path id="Layer 1 copy" fill-rule="evenodd" class="shp1" d="M32 55.88C18.79 55.88 8.12 45.21 8.12 32C8.12 18.79 18.79 8.12 32 8.12C45.21 8.12 55.88 18.79 55.88 32C55.88 45.21 45.21 55.88 32 55.88ZM53.62 32C53.62 20.04 43.96 10.38 32 10.38C20.04 10.38 10.38 20.04 10.38 32C10.38 43.96 20.04 53.62 32 53.62C43.96 53.62 53.62 43.96 53.62 32Z" />
	<path id="Layer 1 copy 2" fill-rule="evenodd" class="shp1" d="M32 49.09C22.55 49.09 14.91 41.45 14.91 32C14.91 22.55 22.55 14.91 32 14.91C41.45 14.91 49.09 22.55 49.09 32C49.09 41.45 41.45 49.09 32 49.09ZM47.39 32C47.39 23.49 40.51 16.61 32 16.61C23.49 16.61 16.61 23.49 16.61 32C16.61 40.51 23.49 47.39 32 47.39C40.51 47.39 47.39 40.51 47.39 32Z" />
	<path id="Layer 1 copy 3" fill-rule="evenodd" class="shp1" d="M37 9.09C34.74 9.09 32.91 7.26 32.91 5C32.91 2.74 34.74 0.91 37 0.91C39.26 0.91 41.09 2.74 41.09 5C41.09 7.26 39.26 9.09 37 9.09ZM42.64 5C42.64 1.88 40.12 -0.64 37 -0.64C33.88 -0.64 31.36 1.88 31.36 5C31.36 8.12 33.88 10.64 37 10.64C40.12 10.64 42.64 8.12 42.64 5Z" />
	<path id="Layer 1 copy 4" fill-rule="evenodd" class="shp1" d="M41 41.35C39.7 41.35 38.65 40.3 38.65 39C38.65 37.7 39.7 36.65 41 36.65C42.3 36.65 43.35 37.7 43.35 39C43.35 40.3 42.3 41.35 41 41.35ZM42.68 39C42.68 38.07 41.93 37.32 41 37.32C40.07 37.32 39.32 38.07 39.32 39C39.32 39.93 40.07 40.68 41 40.68C41.93 40.68 42.68 39.93 42.68 39Z" />
	<path id="Shape 1" class="shp1" d="M48 31L54 31L54 35L48 35L48 31Z" />
	<path id="Shape 2" class="shp1" d="M28 55L32 55L32 63L28 63L28 55Z" />
	<path id="Shape 2 copy 8" class="shp1" d="M42.62 40.48L43.39 39.66L45.38 41.52L44.61 42.34L42.62 40.48Z" />
	<path id="Shape 2 copy 7" class="shp1" d="M16.69 37.72L18.46 40.44L12.55 44.28L10.79 41.56L16.69 37.72Z" />
	<path id="Shape 2 copy 5" class="shp1" d="M32.87 8.92L35.49 9.48L34.08 16.13L31.45 15.58L32.87 8.92Z" />
	<path id="Shape 2 copy 6" class="shp1" d="M16.42 15.05L18.64 12.44L23.4 17.42L21.18 20.04L16.42 15.05Z" />
	<path id="Shape 2 copy 4" class="shp1" d="M27.39 47.52L29.68 47.88L28.61 54.6L26.32 54.23L27.39 47.52Z" />
	<path id="Shape 2 copy 3" class="shp1" d="M10.99 55.99L13.11 52.6L22.67 58.58L20.55 61.97L10.99 55.99Z" />
	<path id="Shape 2 copy 2" class="shp1" d="M20.8 51.92L22.83 52.95L19.2 60.08L17.17 59.05L20.8 51.92Z" />
	<path id="Shape 2 copy" class="shp1" d="M49.22 47.25L50.74 45.5L56.78 50.75L55.26 52.5L49.22 47.25Z" />
	<path id="Shape 3" class="shp1" d="M9 25L17 25L17 28L9 28L9 25Z" />
	<path id="Shape 3 copy 3" class="shp1" d="M42.14 53.36L38.88 47.48L41.03 46.29L44.29 52.16L42.14 53.36Z" />
	<path id="Shape 3 copy 2" class="shp1" d="M42.73 19L46.35 14.84L47.89 16.17L44.27 20.34L42.73 19Z" />
	<path id="Shape 3 copy" class="shp1" d="M20.66 2.89L25.1 9.73L21.86 11.84L17.41 5L20.66 2.89Z" />
	<path id="Shape 4" class="shp1" d="M1 24L5 24L5 29L1 29L1 24Z" />
	<path id="Shape 5" class="shp1" d="M35 35L36 35L36 48L35 48L35 35Z" />
	<path id="Shape 5 copy 8" class="shp1" d="M27.94 42.98L28.88 43.32L27.42 47.35L26.48 47.01L27.94 42.98Z" />
	<path id="Shape 5 copy 9" class="shp1" d="M30.02 44.94L29.68 45.88L25.65 44.42L25.99 43.48L30.02 44.94Z" />
	<path id="Shape 5 copy 7" class="shp1" d="M33.16 15.64L33.95 16.26L17.06 37.87L16.27 37.26L33.16 15.64Z" />
	<path id="Shape 5 copy 6" class="shp1" d="M37.7 16.86L38.4 17.58L27.18 28.42L26.48 27.7L37.7 16.86Z" />
	<path id="Shape 5 copy 5" class="shp1" d="M43.58 20.57L44.09 21.43L28.05 31.07L27.53 30.22L43.58 20.57Z" />
	<path id="Shape 5 copy 4" class="shp1" d="M24.79 17.67L25.32 16.82L48.25 31.15L47.72 32L24.79 17.67Z" />
	<path id="Shape 5 copy 3" class="shp1" d="M46.89 25L47.3 25.91L16.89 39.45L16.49 38.54L46.89 25Z" />
	<path id="Shape 5 copy 2" class="shp1" d="M22.6 18.89L23.53 18.53L34.95 48.26L34.01 48.62L22.6 18.89Z" />
	<path id="Shape 5 copy" class="shp1" d="M47.96 29.99L48.37 30.9L20.1 43.49L19.7 42.57L47.96 29.99Z" />
	<path id="Layer 2" class="shp1" d="M55.5 22C54.67 22 54 21.33 54 20.5C54 19.67 54.67 19 55.5 19C56.33 19 57 19.67 57 20.5C57 21.33 56.33 22 55.5 22Z" />
	<path id="Layer 2 copy" class="shp1" d="M40 21C39.45 21 39 20.55 39 20C39 19.45 39.45 19 40 19C40.55 19 41 19.45 41 20C41 20.55 40.55 21 40 21Z" />
	<path id="Layer 2 copy 2" class="shp1" d="M37 23C36.45 23 36 22.55 36 22C36 21.45 36.45 21 37 21C37.55 21 38 21.45 38 22C38 22.55 37.55 23 37 23Z" />
</svg>