<svg xmlns="http://www.w3.org/2000/svg" viewBox="0 0 32 32" width="32" height="32">
	<style>
		tspan { white-space:pre }
		.shp0 { fill: #000000 } 
		.shp1 { fill: #ff0000 } 
	</style>
	<path id="Layer 1" fill-rule="evenodd" class="shp0" d="M16 31C7.71 31 1 24.3 1 16C1 7.71 7.71 1 16 1C24.3 1 31 7.71 31 16C31 24.3 24.3 31 16 31ZM29 15.47C29 8.57 23.41 3 16.5 3C9.59 3 4 8.57 4 15.47C4 22.36 9.59 27.93 16.5 27.93C23.41 27.93 29 22.36 29 15.47Z" />
	<path id="Layer 2" class="shp1" d="M0.93 6.83L3.97 1.09L28.6 26.28L29.87 31.02L0.93 6.83Z" />
	<path id="Shape 1" class="shp1" d="M6.45 30.53L4.04 25.22L26.19 0.53L27.82 4L6.45 30.53Z" />
</svg>